<svg xmlns="http://www.w3.org/2000/svg" viewBox="0 0 900 300">
  <style>
    .cls-s3{fill:#E15344;}
    .cls-azure{fill: #0079D8;}
    text {
      fill: black;
      font-size: 24px;
      stroke-width: 0;
      dominant-baseline: middle;
      font-family: sans-serif;
    }

    line {
      stroke-linecap: round;
      stroke-width: 4;
      stroke: black;
    }
  </style>

  <!-- https://thenounproject.com/term/paper-bag/28579/ -->
  <g transform="scale(0.45) translate(20 20)">
    <svg y="150" xmlns="http://www.w3.org/2000/svg" xmlns:xlink="http://www.w3.org/1999/xlink" height="300px" width="300px" fill="#000000" version="1.1" viewBox="0 0 100 100" enable-background="new 0 0 100 100" xml:space="preserve">
      <path d="M81.734,81.745v0.906l-0.58,0.13l-0.453,0.195l-6.666,4.204L73,87.765l-0.453,0.195l-14.756,4.596l-1.164,0.062  l-9.064,0.973L18.178,75.468l-0.517-0.26l-0.193-0.387l-0.13-0.195l3.043-31.197l8.543-33.331l0.646-1.812l1.813-0.388l3.881-0.648  l2.009-0.258l0.519-0.259l0.775-0.191l0.193-0.132l32.167,8.35l0.842,1.1l0.066,1.618l-0.326,4.725l-0.646,0.324l-0.062,0.129  L68.6,22.913l11.26,18.448l0.521,0.973l0.32,0.128L81.734,81.745L81.734,81.745z M79.02,79.417l-0.971-35.792L63.682,20.258  l-0.066-0.063l-6.988,15.856l10.482,30.938L73,73.462l4.596,4.66l1.1,1.23L79.02,79.417L79.02,79.417z M73.191,84.529L77.4,81.88  L66.854,70.937l-2.074,2.525L52.354,89.835l-0.258,0.584l5.564-0.584l14.176-4.397L73.191,84.529L73.191,84.529z M69.311,20.129  l-0.129-2.458l-3.172,0.904l1.684,1.684L69.311,20.129L69.311,20.129z M64.264,16.182l0.645-0.26L38.891,9.255l-0.066,0.13  l-1.228,0.323l24.27,6.279L64.264,16.182L64.264,16.182z M64.004,70.031l0.904-1.294l-9.902-28.996l-0.062-0.064l-2.59,5.954  l-2.46,42.911L64.004,70.031L64.004,70.031z M50.282,43.69L61.35,18.575l-29.773-7.636l-0.129,0.13l-8.479,33.138l-2.784,29.319  l26.536,16.439l0.388,0.065l2.524-43.366l-0.127-1.359L50.282,43.69L50.282,43.69z"/>
    </svg>
  </g>

  <rect width="100" height="100" x="300" y="100" rx="15" ry="15" fill="#62C0CE"
        stroke-width="4"
        stroke="#009BB2"/>

  <!-- https://thenounproject.com/term/process/2473979/ -->
  <g transform="scale(0.25) translate(1255 446)">
    <svg x="0px" y="0px"  xmlns:x="http://ns.adobe.com/Extensibility/1.0/" xmlns:i="http://ns.adobe.com/AdobeIllustrator/10.0/" xmlns:graph="http://ns.adobe.com/Graphs/1.0/" xmlns="http://www.w3.org/2000/svg" xmlns:xlink="http://www.w3.org/1999/xlink" height="300px" width="300px" fill="#000000" version="1.1" viewBox="0 0 100 100" style="enable-background:new 0 0 100 100;" xml:space="preserve">
      <g>
        <path d="M63,73.7l1.1-4.9c0.6-2.4-0.8-4.9-3.2-5.7l-4.7-1.6c-0.2-0.1-0.4-0.2-0.4-0.5c-0.2-1.2-0.4-2.4-0.8-3.5     c-0.1-0.2,0-0.4,0.2-0.6l3.5-3.5c1.8-1.8,1.9-4.5,0.4-6.5L56,43.1c-1.6-2-4.3-2.4-6.4-1.1l-4.2,2.7c-0.2,0.1-0.4,0.1-0.6,0     c-1-0.6-2.1-1.1-3.3-1.6c-0.2-0.1-0.3-0.3-0.3-0.5l-0.5-4.9c-0.3-2.5-2.3-4.3-4.8-4.3h-5c-2.5,0-4.6,1.9-4.8,4.3l-0.5,4.9     c0,0.2-0.2,0.4-0.3,0.5c-1.2,0.4-2.3,1-3.3,1.5c-0.2,0.1-0.4,0.1-0.6,0L17.1,42c-2.1-1.3-4.9-0.9-6.4,1.1L7.6,47     C6,49,6.2,51.8,8,53.5l3.5,3.5c0.2,0.2,0.2,0.4,0.2,0.5c-0.3,1.1-0.6,2.3-0.8,3.6c0,0.2-0.2,0.4-0.4,0.4l-4.7,1.6     c-2.4,0.8-3.7,3.3-3.1,5.7l1.1,4.9c0.6,2.4,2.8,4,5.3,3.7l4.8-0.6c0.3,0,0.5,0.1,0.6,0.2c0.7,1,1.4,2,2.2,2.8     c0.1,0.1,0.2,0.3,0.2,0.5l-1.7,4.8c-0.8,2.3,0.2,4.9,2.5,6l4.5,2.2c2.2,1.1,4.9,0.3,6.2-1.8l2.6-4.2c0.1-0.2,0.3-0.3,0.6-0.3     c1.2,0.1,2.4,0.1,3.6,0c0.2,0,0.4,0.1,0.6,0.3l2.6,4.2c0.9,1.5,2.5,2.3,4.1,2.3c0.7,0,1.4-0.2,2.1-0.5l4.5-2.2     c2.2-1.1,3.3-3.7,2.5-6l-1.7-4.7c-0.1-0.2,0-0.4,0.2-0.5c0.8-0.9,1.6-1.8,2.2-2.8c0.1-0.1,0.3-0.3,0.5-0.3l5,0.6     C60.1,77.7,62.5,76.1,63,73.7z M58.9,72.7c-0.1,0.3-0.4,0.5-0.7,0.5l-5-0.6c-0.2,0-0.4,0-0.5,0c-1.6,0-3.1,0.8-4,2.2     c-0.5,0.8-1.2,1.6-1.8,2.3c-1.2,1.3-1.6,3.2-1,4.8l1.7,4.7c0.1,0.3,0,0.6-0.3,0.7l-4.5,2.2c-0.3,0.1-0.6,0-0.8-0.2l-2.6-4.2     c-1-1.6-2.8-2.5-4.7-2.3c-0.9,0.1-1.8,0.1-2.6,0c-1.9-0.2-3.7,0.7-4.7,2.3l-2.6,4.2c-0.2,0.3-0.5,0.4-0.8,0.2l-4.5-2.2     c-0.3-0.1-0.4-0.4-0.3-0.7l1.7-4.8c0.6-1.6,0.2-3.5-1.1-4.8c-0.7-0.7-1.3-1.5-1.8-2.3c-1-1.5-2.8-2.3-4.7-2.1l-4.8,0.6     c-0.3,0-0.6-0.2-0.7-0.5l-1.1-4.9c-0.1-0.3,0.1-0.6,0.4-0.7l4.7-1.6c1.7-0.6,3-2.1,3.2-3.9c0.1-1,0.3-2,0.6-2.9     c0.5-1.7,0-3.6-1.2-4.8L11,50.5c-0.2-0.2-0.2-0.6,0-0.8l3.1-3.9c0.2-0.2,0.5-0.3,0.8-0.1l4.2,2.7c1.5,1,3.4,1,5,0.1     c0.8-0.5,1.7-0.9,2.7-1.3c1.7-0.6,2.9-2.2,3.1-4l0.5-4.9c0-0.3,0.3-0.5,0.6-0.5h5c0.3,0,0.6,0.2,0.6,0.5l0.5,4.9     c0.2,1.8,1.4,3.4,3.1,4c1,0.4,1.9,0.8,2.7,1.3c1.5,0.9,3.4,0.8,5-0.1l4.2-2.7c0.3-0.2,0.6-0.1,0.8,0.1l3.1,3.9     c0.2,0.2,0.2,0.6,0,0.8L52.3,54c-1.3,1.3-1.8,3.1-1.2,4.8c0.3,0.9,0.5,1.9,0.6,2.9c0.3,1.8,1.5,3.3,3.2,3.9l4.7,1.6     c0.3,0.1,0.5,0.4,0.4,0.7L58.9,72.7z"/>
        <path d="M33.4,51.9c-6.9,0-12.5,5.6-12.5,12.5c0,6.9,5.6,12.5,12.5,12.5s12.5-5.6,12.5-12.5C45.8,57.5,40.2,51.9,33.4,51.9z      M33.4,72.6c-4.5,0-8.2-3.7-8.2-8.2c0-4.5,3.7-8.2,8.2-8.2s8.2,3.7,8.2,8.2C41.6,68.9,37.9,72.6,33.4,72.6z"/>
        <path d="M94.2,35.9l-4.7-1.6c-0.2-0.1-0.3-0.2-0.4-0.4c-0.2-1.3-0.4-2.5-0.8-3.6c-0.1-0.3,0.1-0.5,0.2-0.5l3.5-3.5     c1.8-1.8,1.9-4.5,0.4-6.5l-3.1-3.9c-1.6-1.9-4.3-2.4-6.4-1.1l-4.2,2.6c-0.1,0.1-0.4,0.2-0.6,0c-1-0.6-2.1-1.1-3.3-1.5     c-0.3-0.1-0.3-0.3-0.4-0.5L74,10.5c-0.3-2.5-2.4-4.4-4.8-4.4h-5c-2.5,0-4.6,1.9-4.8,4.3l-0.5,4.9c0,0.1-0.1,0.4-0.3,0.5     c-1.2,0.5-2.3,1-3.4,1.6c-0.1,0.1-0.3,0.1-0.5,0l-4.3-2.7c-2.1-1.3-4.8-0.9-6.4,1.1l-3.1,3.9c-1.5,2-1.3,4.8,0.4,6.5l3.5,3.4     c0.1,0.2,0.2,0.4,0.2,0.5c-0.3,1.1-0.6,2.3-0.8,3.5C44,35,44.8,36,45.9,36.2c1.1,0.2,2.2-0.6,2.4-1.8c0.1-1,0.3-1.9,0.6-2.9     c0.5-1.7,0.1-3.6-1.2-4.9l-3.5-3.5c-0.3-0.3-0.2-0.6,0-0.8l3.1-3.8c0.2-0.2,0.5-0.3,0.8-0.2l4.2,2.6c1.4,1,3.4,1,5,0.1     c0.8-0.5,1.7-0.9,2.6-1.2c1.7-0.6,2.9-2.2,3.1-4l0.5-4.9c0-0.3,0.3-0.5,0.6-0.5h5c0.3,0,0.6,0.2,0.6,0.5l0.5,4.9     c0.2,1.9,1.4,3.4,3.1,4c1,0.4,1.8,0.8,2.6,1.2c1.6,0.9,3.5,0.9,5-0.1l4.1-2.6c0.3-0.2,0.6-0.1,0.8,0.1l3.1,3.9     c0.2,0.2,0.2,0.6-0.1,0.8l-3.5,3.5c-1.3,1.3-1.8,3.1-1.2,4.8c0.3,0.9,0.5,1.9,0.6,2.8c0.2,1.7,1.5,3.3,3.2,3.9l4.7,1.6     c0.3,0.1,0.5,0.4,0.4,0.7l-1.1,4.9c-0.1,0.3-0.3,0.5-0.7,0.5l-5-0.6c-1.8-0.2-3.5,0.6-4.5,2.1c-0.5,0.8-1.1,1.5-1.8,2.3     c-1.3,1.4-1.6,3.3-1,4.9l1.7,4.7c0.1,0.3,0,0.6-0.3,0.7L76,62.3c-0.3,0.1-0.6,0.1-0.7-0.2l-2.6-4.2c-1-1.6-2.8-2.5-4.7-2.3     c-0.8,0.1-1.8,0.1-2.7,0c-1.2,0-2.2,0.8-2.3,2c-0.1,1.2,0.8,2.2,2,2.3c1.2,0.1,2.3,0.1,3.4,0c0.2,0,0.5,0,0.7,0.3l2.6,4.2     c0.9,1.5,2.5,2.3,4.1,2.3c0.7,0,1.5-0.2,2.2-0.5l4.5-2.2c2.2-1,3.3-3.6,2.4-6l-1.7-4.7c-0.1-0.2,0-0.4,0.2-0.5     c0.8-0.9,1.6-1.8,2.2-2.8c0,0,0.3-0.2,0.4-0.3l5.1,0.6c2.5,0.3,4.8-1.4,5.3-3.8l1.1-4.8C97.9,39.2,96.6,36.7,94.2,35.9z"/>
        <path d="M66.9,45.3c-1.2,0-2.1,1-2.1,2.2c0,1.2,1,2.1,2.1,2.1c0,0,0,0,0.1,0c6.7-0.2,12-5.7,12-12.5c0-6.9-5.6-12.5-12.5-12.5     c-5.6,0-10.6,3.8-12.1,9.2c-0.3,1.1,0.4,2.3,1.5,2.6c1.1,0.3,2.3-0.4,2.6-1.5c1-3.6,4.2-6.1,8-6.1c4.5,0,8.2,3.7,8.2,8.2     C74.8,41.6,71.4,45.2,66.9,45.3z"/>
        <path d="M13.5,36.9c1.2,0,2.1-1,2.1-2.1V20.1c0-2.2,1.8-3.9,3.9-3.9h11.1l-2.5,2.5c-0.8,0.8-0.8,2.2,0,3c0.4,0.4,1,0.6,1.5,0.6     c0.5,0,1.1-0.2,1.5-0.6l6.2-6.2c0.8-0.8,0.8-2.2,0-3l-6.2-6.2c-0.8-0.8-2.2-0.8-3,0c-0.8,0.8-0.8,2.2,0,3l2.5,2.5H19.5     c-4.5,0-8.2,3.7-8.2,8.2v14.7C11.3,36,12.3,36.9,13.5,36.9z"/>
        <path d="M86.5,68.4c-1.2,0-2.1,1-2.1,2.1v9.4c0,2.2-1.8,3.9-3.9,3.9H67.6l2.5-2.5c0.8-0.8,0.8-2.2,0-3c-0.8-0.8-2.2-0.8-3,0     L61,84.5c-0.8,0.8-0.8,2.2,0,3l6.2,6.2c0.4,0.4,1,0.6,1.5,0.6c0.5,0,1.1-0.2,1.5-0.6c0.8-0.8,0.8-2.2,0-3l-2.5-2.5h12.8     c4.5,0,8.2-3.7,8.2-8.2v-9.4C88.7,69.3,87.7,68.4,86.5,68.4z"/>
      </g>
    </svg>
  </g>

  <!-- Bucket icon from https://aws.amazon.com/architecture/icons/ -->

  <g transform="scale(1.5) translate(380 5)">
    <path class="cls-s3" d="M24.67,48.5c-6.39,0-16.5-1.45-16.63-5.34L3.51,9.55a1,1,0,0,1,2-.39c.5,1.93,8.05,4.63,19.2,4.63s18.69-2.7,19.19-4.63a1,1,0,0,1,2,.39L41.29,43.16c0,1.32-1.22,2.45-3.51,3.36a22.87,22.87,0,0,1-3.12.94A46.09,46.09,0,0,1,24.67,48.5ZM5.9,12.27,10,43s0,.09,0,.13c0,1.18,5.69,3.42,14.63,3.42a43.75,43.75,0,0,0,9.54-1A21,21,0,0,0,37,44.66c1.85-.73,2.26-1.39,2.26-1.58a.62.62,0,0,1,0-.13l4.13-30.68c-3.86,2.3-11.64,3.52-18.77,3.52S9.75,14.57,5.9,12.27Z"/>
    <path class="cls-s3" d="M24.67,15.79c-9.47,0-20.1-2.15-21.13-6.12a.79.79,0,0,1,0-.13l0-.41a.62.62,0,0,1,0-.13c0-4.42,11.18-7.5,21.22-7.5S45.89,4.58,45.89,9c0,0,0,.08,0,.13l-.06.41a.69.69,0,0,1,0,.13C44.76,13.64,34.13,15.79,24.67,15.79ZM5.48,9.21c.62,1.93,8.14,4.58,19.19,4.58s18.56-2.65,19.18-4.58l0-.27C43.74,7,35.86,3.5,24.67,3.5S5.59,7,5.45,8.94Z"/>
    <path class="cls-s3" d="M45.93,29.62c-4.76,0-15.18-4.71-21.7-7.91l.88-1.8c9,4.43,19.6,8.52,21.41,7.75-.14-.29-.81-1.19-4-2.92l-.16-.1,1-1.74.15.09c3.21,1.77,4.74,3.13,5,4.41a1.82,1.82,0,0,1-.4,1.52A2.77,2.77,0,0,1,45.93,29.62Z"/>
    <path class="cls-s3" d="M24.67,23a2.17,2.17,0,1,1,2.17-2.17A2.18,2.18,0,0,1,24.67,23Zm0-2.34a.17.17,0,0,0-.18.17c0,.19.35.19.35,0A.17.17,0,0,0,24.67,20.64Z"/>
  </g>

  <text x="660" y="45">Amazon S3</text>

  <g transform="scale(1.5) translate(380 75)">
    <path class="cls-s3" d="M24.67,48.5c-6.39,0-16.5-1.45-16.63-5.34L3.51,9.55a1,1,0,0,1,2-.39c.5,1.93,8.05,4.63,19.2,4.63s18.69-2.7,19.19-4.63a1,1,0,0,1,2,.39L41.29,43.16c0,1.32-1.22,2.45-3.51,3.36a22.87,22.87,0,0,1-3.12.94A46.09,46.09,0,0,1,24.67,48.5ZM5.9,12.27,10,43s0,.09,0,.13c0,1.18,5.69,3.42,14.63,3.42a43.75,43.75,0,0,0,9.54-1A21,21,0,0,0,37,44.66c1.85-.73,2.26-1.39,2.26-1.58a.62.62,0,0,1,0-.13l4.13-30.68c-3.86,2.3-11.64,3.52-18.77,3.52S9.75,14.57,5.9,12.27Z"/>
    <path class="cls-s3" d="M24.67,15.79c-9.47,0-20.1-2.15-21.13-6.12a.79.79,0,0,1,0-.13l0-.41a.62.62,0,0,1,0-.13c0-4.42,11.18-7.5,21.22-7.5S45.89,4.58,45.89,9c0,0,0,.08,0,.13l-.06.41a.69.69,0,0,1,0,.13C44.76,13.64,34.13,15.79,24.67,15.79ZM5.48,9.21c.62,1.93,8.14,4.58,19.19,4.58s18.56-2.65,19.18-4.58l0-.27C43.74,7,35.86,3.5,24.67,3.5S5.59,7,5.45,8.94Z"/>
    <path class="cls-s3" d="M45.93,29.62c-4.76,0-15.18-4.71-21.7-7.91l.88-1.8c9,4.43,19.6,8.52,21.41,7.75-.14-.29-.81-1.19-4-2.92l-.16-.1,1-1.74.15.09c3.21,1.77,4.74,3.13,5,4.41a1.82,1.82,0,0,1-.4,1.52A2.77,2.77,0,0,1,45.93,29.62Z"/>
    <path class="cls-s3" d="M24.67,23a2.17,2.17,0,1,1,2.17-2.17A2.18,2.18,0,0,1,24.67,23Zm0-2.34a.17.17,0,0,0-.18.17c0,.19.35.19.35,0A.17.17,0,0,0,24.67,20.64Z"/>
  </g>

  <text x="660" y="150">Amazon Glacier</text>

  <g transform="scale(1.5) translate(380 145)">
    <path class="cls-azure" d="M24.67,48.5c-6.39,0-16.5-1.45-16.63-5.34L3.51,9.55a1,1,0,0,1,2-.39c.5,1.93,8.05,4.63,19.2,4.63s18.69-2.7,19.19-4.63a1,1,0,0,1,2,.39L41.29,43.16c0,1.32-1.22,2.45-3.51,3.36a22.87,22.87,0,0,1-3.12.94A46.09,46.09,0,0,1,24.67,48.5ZM5.9,12.27,10,43s0,.09,0,.13c0,1.18,5.69,3.42,14.63,3.42a43.75,43.75,0,0,0,9.54-1A21,21,0,0,0,37,44.66c1.85-.73,2.26-1.39,2.26-1.58a.62.62,0,0,1,0-.13l4.13-30.68c-3.86,2.3-11.64,3.52-18.77,3.52S9.75,14.57,5.9,12.27Z"/>
    <path class="cls-azure" d="M24.67,15.79c-9.47,0-20.1-2.15-21.13-6.12a.79.79,0,0,1,0-.13l0-.41a.62.62,0,0,1,0-.13c0-4.42,11.18-7.5,21.22-7.5S45.89,4.58,45.89,9c0,0,0,.08,0,.13l-.06.41a.69.69,0,0,1,0,.13C44.76,13.64,34.13,15.79,24.67,15.79ZM5.48,9.21c.62,1.93,8.14,4.58,19.19,4.58s18.56-2.65,19.18-4.58l0-.27C43.74,7,35.86,3.5,24.67,3.5S5.59,7,5.45,8.94Z"/>
    <path class="cls-azure" d="M45.93,29.62c-4.76,0-15.18-4.71-21.7-7.91l.88-1.8c9,4.43,19.6,8.52,21.41,7.75-.14-.29-.81-1.19-4-2.92l-.16-.1,1-1.74.15.09c3.21,1.77,4.74,3.13,5,4.41a1.82,1.82,0,0,1-.4,1.52A2.77,2.77,0,0,1,45.93,29.62Z"/>
    <path class="cls-azure" d="M24.67,23a2.17,2.17,0,1,1,2.17-2.17A2.18,2.18,0,0,1,24.67,23Zm0-2.34a.17.17,0,0,0-.18.17c0,.19.35.19.35,0A.17.17,0,0,0,24.67,20.64Z"/>
  </g>

  <text x="660" y="255">Azure Blob Storage</text>

  <text x="85" y="235" text-anchor="middle">BagIt “bag”</text>
  <text x="350" y="235" text-anchor="middle">Storage service</text>

  <!-- Arrows -->
  <marker id="arrowhead" markerWidth="5" markerHeight="3.5"
    refX="0" refY="1.75" orient="auto">
    <polygon points="0 0, 5 1.75, 0 3.5" />
  </marker>

  <line x1="140" y1="150" x2="265" y2="150" marker-end="url(#arrowhead)"/>

  <line x1="415" y1="150" x2="545" y2="150" marker-end="url(#arrowhead)"/>
  <line x1="500" y1="50" x2="545" y2="50" marker-end="url(#arrowhead)"/>
  <line x1="500" y1="250" x2="545" y2="250" marker-end="url(#arrowhead)"/>
  <line x1="500" y1="50" x2="500" y2="250"/>
</svg>
